<?xml version="1.0" encoding="UTF-8"?>
<!-- Generator: Adobe Illustrator 13.0.2, SVG Export Plug-In . SVG Version: 6.00 Build 14948)  -->
<!DOCTYPE svg PUBLIC "-//W3C//DTD SVG 1.0//EN" "http://www.w3.org/TR/2001/REC-SVG-20010904/DTD/svg10.dtd">
<svg version="1.0" id="Layer_1" xmlns:svg="http://www.w3.org/2000/svg" xmlns="http://www.w3.org/2000/svg" xmlns:xlink="http://www.w3.org/1999/xlink" x="0px" y="0px" width="528px" height="513px" viewBox="0 0 528 513" enable-background="new 0 0 528 513" xml:space="preserve"><span xmlns="" id="uas-port"/>
<title>Triquetra symbol interlaced with circle (ribbons or pseudo-Celtic knotwork)</title>
<rect width="528" height="513" fill="white"/>
<g transform="translate(-124,739.7) scale(0.1,-0.1)">
	<path fill="none" stroke="#000000" stroke-width="350" d="M6219.697,3023.748C6064.013,4092.019,5073.447,5014.265,3880,5014.265   s-2184.013-922.226-2339.702-1990.517c239.253-28.33,579.121-106.514,923.491-106.514c1256.43,0,2274.99,1018.545,2274.99,2274.99   c0,754.995-374.561,1460.806-858.779,1883.999c-484.214-423.193-858.779-1129.004-858.779-1883.999   c0-1256.445,1018.545-2274.99,2274.99-2274.99C5640.576,2917.234,5980.449,2995.418,6219.697,3023.748z"/>
	<circle fill="none" stroke="#000000" stroke-width="350" cx="3880" cy="4374.573" r="1746.001"/>
	<path fill="none" stroke="#000000" stroke-width="350" d="M4671.201,4641.863c35.244,141.367,56.826,285.805,64.463,431.308    M3715.869,3555.74c104.805-101.221,219.111-192.119,341.299-271.484 M5048.3,5672.102   c-243.145,218.926-542.91,365.132-865.107,421.953 M2172.158,4737.585c-25.361-119.335-38.159-240.996-38.159-363.007   c0-203.672,35.64-405.781,105.303-597.168 M4419.55,2714.031c311.162,101.094,587.656,287.607,797.969,538.242"/>
</g>
</svg>
